<svg width="15" height="17" viewBox="0 0 15 17" fill="none" xmlns="http://www.w3.org/2000/svg">
<path d="M13.5 15.0117V5.27344H1.47656V15.0117H13.5ZM13.5 1.51172C13.8984 1.51172 14.2441 1.66406 14.5371 1.96875C14.8301 2.27344 14.9766 2.625 14.9766 3.02344V15.0117C14.9766 15.4102 14.8301 15.7617 14.5371 16.0664C14.2441 16.3711 13.8984 16.5234 13.5 16.5234H1.47656C1.07812 16.5234 0.732422 16.3711 0.439453 16.0664C0.146484 15.7617 0 15.4102 0 15.0117V3.02344C0 2.625 0.146484 2.27344 0.439453 1.96875C0.732422 1.66406 1.07812 1.51172 1.47656 1.51172H2.25V0H3.72656V1.51172H11.25V0H12.7266V1.51172H13.5Z" fill="#94A3B8"/>
</svg>
